<?xml version="1.0" encoding="utf-8"?>
<!-- Generator: Adobe Illustrator 23.0.6, SVG Export Plug-In . SVG Version: 6.00 Build 0)  -->
<svg version="1.1" xmlns="http://www.w3.org/2000/svg" xmlns:xlink="http://www.w3.org/1999/xlink" x="0px" y="0px"
	 viewBox="0 0 768 768" style="enable-background:new 0 0 768 768;" xml:space="preserve">
<style type="text/css">
	.st0{display:none;}
	.st1{display:inline;fill:none;stroke:#352719;stroke-width:6;stroke-miterlimit:10;}
	.st2{fill:url(#SVGID_1_);}
	.st3{fill:#C15230;}
	.st4{fill:url(#SVGID_2_);}
	.st5{fill:#352719;}
	.st6{display:inline;}
</style>
<g id="Layer_1">
	<g class="st0">
		<path class="st1" d="M260,389c0,0,67.5-27.5,127.5-27.5C447,361,507,381,507,381"/>
		<path class="st1" d="M294,301c0,0,26.5,6.5,45.5,36.5c12.63,19.94,7,54-3,74c-11,22-44.5,53.5-44.5,53.5"/>
		<path class="st1" d="M477,303c0,0-29,5-47.5,35.5c-12.24,20.18-5.98,46.6,4,72c11,28,41.5,57.5,41.5,57.5"/>
		<path class="st1" d="M387,260c0,0,2.5,156.5-2.5,212.5c-1.25,13.98-3.5,34.5-3.5,34.5"/>
	</g>
	<g>
		<linearGradient id="SVGID_1_" gradientUnits="userSpaceOnUse" x1="384" y1="150" x2="384" y2="618">
			<stop  offset="0" style="stop-color:#E57747"/>
			<stop  offset="0.9993" style="stop-color:#D16340"/>
		</linearGradient>
		<path class="st2" d="M551.76,543.63l7.8-7.11c0.51-0.47,1.11-0.78,1.75-0.94c1.1-0.28,2.05-1.01,2.77-1.89
			c32.64-39.23,52.7-89.28,54-143.99c0.03-1.33-0.36-2.63-1.1-3.73c-0.43-0.65-0.69-1.43-0.69-2.26v-10.56
			c0-0.66,0.16-1.27,0.44-1.82c0.58-1.14,0.95-2.39,0.86-3.67c-3.33-48.15-21.22-92.29-49.29-128.05c-0.65-0.83-1.65-1.42-2.71-1.36
			c-1.17,0.06-2.36-0.38-3.22-1.31l-7.12-7.8c-0.92-1.01-1.24-2.35-0.98-3.59c0.24-1.14-0.1-2.32-0.9-3.16
			c-39.33-41.18-93.52-68.03-153.97-71.94c-0.79-0.05-1.55,0.24-2.21,0.68c-0.64,0.43-1.41,0.68-2.24,0.68h-10.56
			c-0.99,0-1.89-0.35-2.6-0.94c-0.65-0.54-1.43-0.89-2.27-0.87c-62.39,1.18-118.81,26.76-160.11,67.62
			c-0.23,0.23-0.28,0.56-0.19,0.87c0.34,1.13,0.2,2.4-0.51,3.45l-5.88,8.77c-1.26,1.87-3.8,2.37-5.67,1.12h0
			c-0.35-0.24-0.83-0.17-1.1,0.15c-35.01,40.93-56.14,94.08-56.12,152.16c0.14,0.28,0.32,0.64,0.46,0.92
			c0.87,0.75,1.41,1.85,1.41,3.08v10.56c0,1.14-0.47,2.17-1.22,2.91c3.6,48.55,22,92.97,50.71,128.77c0.75,0.94,1.92,1.4,3.12,1.34
			c1.16-0.05,2.34,0.39,3.19,1.32l7.12,7.8c0.91,1,1.23,2.33,0.99,3.57c-0.24,1.2,0.09,2.44,0.95,3.31
			c38.14,39.01,89.81,64.72,147.42,69.59c2.43,0.21,4.73-0.73,6.72-2.14c0.67-0.47,1.48-0.75,2.36-0.75h10.56
			c1.06,0,2.02,0.41,2.75,1.07c1.66,1.54,3.73,2.59,6,2.51c60.71-2.14,115.53-27.39,155.94-67.23c1.16-1.14,2-2.66,2.06-4.28
			C550.48,545.43,550.92,544.4,551.76,543.63z"/>
		<path class="st3" d="M576.95,443.98c-7.49,11.24-18.73,22.47-28.09,33.71c-65.55,71.17-172.31,86.15-258.46,48.7
			c-20.6-9.36-44.95-13.11-61.81-29.97c-40.01-31.31-60.63-77.16-78.37-124.05c-0.19,3.9-0.3,7.82-0.29,11.76
			c0.14,0.28,0.32,0.64,0.46,0.92c0.87,0.75,1.41,1.85,1.41,3.08v10.56c0,1.14-0.47,2.17-1.22,2.91c3.6,48.55,22,92.97,50.71,128.77
			c0.75,0.94,1.92,1.4,3.12,1.34c1.16-0.05,2.34,0.39,3.19,1.32l7.12,7.8c0.91,1,1.23,2.33,0.99,3.57c-0.24,1.2,0.09,2.44,0.95,3.31
			c38.14,39.01,89.81,64.72,147.42,69.59c2.43,0.21,4.73-0.73,6.72-2.14c0.67-0.47,1.48-0.75,2.36-0.75h10.56
			c1.06,0,2.02,0.41,2.75,1.07c1.66,1.54,3.73,2.59,6,2.51c60.71-2.14,115.53-27.39,155.94-67.23c1.16-1.14,2-2.66,2.06-4.28
			c0.04-1.05,0.48-2.08,1.32-2.85l7.8-7.11c0.51-0.47,1.11-0.78,1.75-0.94c1.1-0.28,2.05-1.01,2.77-1.89
			c32.64-39.23,52.7-89.28,54-143.99c0.01-0.56-0.07-1.11-0.2-1.65C606.82,407.76,591.14,426.24,576.95,443.98z"/>
		<linearGradient id="SVGID_2_" gradientUnits="userSpaceOnUse" x1="384.0476" y1="150" x2="384.0476" y2="546.2894">
			<stop  offset="0.2019" style="stop-color:#E57747"/>
			<stop  offset="0.9993" style="stop-color:#D16340"/>
		</linearGradient>
		<path class="st4" d="M228.59,496.42c16.86,16.86,41.2,20.6,61.81,29.97c86.15,37.46,192.91,22.47,258.46-48.7
			c9.36-11.24,20.6-22.47,28.09-33.71c14.19-17.74,29.87-36.23,40.92-55.93c-0.18-0.74-0.48-1.44-0.9-2.08
			c-0.43-0.65-0.69-1.43-0.69-2.26v-10.56c0-0.66,0.16-1.27,0.44-1.82c0.58-1.14,0.95-2.39,0.86-3.67
			c-3.33-48.15-21.22-92.29-49.29-128.05c-0.65-0.83-1.65-1.42-2.71-1.36c-1.17,0.06-2.36-0.38-3.22-1.31l-7.12-7.8
			c-0.92-1.01-1.24-2.35-0.98-3.59c0.24-1.14-0.1-2.32-0.9-3.16c-39.33-41.18-93.52-68.03-153.97-71.94
			c-0.79-0.05-1.55,0.24-2.21,0.68c-0.64,0.43-1.41,0.68-2.24,0.68h-10.56c-0.99,0-1.89-0.35-2.6-0.94
			c-0.65-0.54-1.43-0.89-2.27-0.87c-62.39,1.18-118.81,26.76-160.11,67.62c-0.23,0.23-0.28,0.56-0.19,0.87
			c0.34,1.13,0.2,2.4-0.51,3.45l-5.88,8.77c-1.26,1.87-3.8,2.37-5.67,1.12c-0.35-0.24-0.83-0.17-1.1,0.15
			c-32.63,38.15-53.2,86.92-55.83,140.4C167.97,419.26,188.58,465.11,228.59,496.42z"/>
		<g>
			<g>
				<path class="st5" d="M151.8,399.03V387.8c1.27-0.52,126.62-51.5,238.79-51.5c111.04-0.97,224.45,36.43,225.59,36.81l0.1,10.95
					c-1.12-0.37-116.39-37.44-225.64-36.52C280.66,347.53,153.06,398.52,151.8,399.03z"/>
			</g>
			<g>
				<path class="st5" d="M215.59,541.72l-7.7-8.19c0.62-0.58,62.25-60.66,82.17-100.49c19.56-39.11,27.11-99.58,5.9-133.08
					c-17.67-27.9-38.94-44.32-53.68-53.19c-16.02-9.64-28.55-16.28-28.66-16.31l5.62-9.36c2.12,0.52,49.84,15.41,86.22,72.85
					c14.49,22.88,15.58,52.17,13.94,72.71c-1.98,24.85-9.01,50.87-19.28,71.41C279.3,479.69,218.18,539.28,215.59,541.72z"/>
			</g>
			<g>
				<path class="st5" d="M550.57,545.41c-2.37-2.29-58.24-56.71-79.05-109.68c-16.81-42.8-32.81-97.37-7.07-139.82
					c35.57-58.64,87.7-66.92,90.02-67.32l7.49,7.49c0,0-55.09,11.56-87.9,65.66c-23.19,38.23-7.95,89.49,7.92,129.88
					c19.91,50.67,75.84,105.16,76.4,105.71L550.57,545.41z"/>
			</g>
			<g>
				<path class="st5" d="M384.04,614.42H372.8c0.04-0.38,4.27-39.29,6.58-65.11c9.23-103.39,4.71-394.47,4.66-397.4l11.24-0.18
					c0.05,2.93,4.58,294.61-4.7,398.58C388.26,576.24,384.09,614.03,384.04,614.42z"/>
			</g>
		</g>
	</g>
	<g class="st0">
		<g class="st6">
			<path class="st5" d="M260.19,393.76l-2.37-5.51c0.69-0.3,69.76-29.75,129.69-29.75c59.26-0.51,121.33,19.95,121.95,20.15
				l-1.9,5.69c-0.6-0.2-60.27-19.85-117.92-19.85c-0.7,0-1.4,0-2.1,0.01C328.83,364.5,260.87,393.46,260.19,393.76z"/>
		</g>
		<g class="st6">
			<path class="st5" d="M293.62,469.62l-4.24-4.24c0.34-0.34,33.78-33.91,44.44-55.22c10.44-20.88,14.47-53.17,3.15-71.05
				c-18.15-28.65-44.92-35.63-45.19-35.69l1.46-5.82c1.19,0.3,29.39,7.64,48.81,38.31c7.74,12.22,8.32,27.85,7.44,38.82
				c-1.06,13.27-4.81,27.16-10.29,38.13C328.09,435.02,295.02,468.22,293.62,469.62z"/>
		</g>
		<g class="st6">
			<path class="st5" d="M474.52,468.76c-1.33-1.16-32.68-28.81-43.82-57.16c-9.1-23.16-17.75-52.59-3.74-74.7
				c19.43-30.68,49.58-38.02,50.85-38.32l1.37,5.84c-0.29,0.07-29.08,7.15-47.15,35.68c-12.56,19.84-4.32,47.45,4.26,69.3
				c10.6,26.98,41.87,54.56,42.18,54.84L474.52,468.76z"/>
		</g>
		<g class="st6">
			<path class="st5" d="M384.49,507.75l-5.98-0.5c0.02-0.21,1.77-21.19,3-35.02c4.93-55.2,2.02-211.11,1.99-212.68l6-0.11
				c0.03,1.57,2.95,157.8-2.01,213.32C386.25,486.58,384.51,507.54,384.49,507.75z"/>
		</g>
	</g>
</g>
<g id="Layer_2">
</g>
</svg>
