<svg id="Layer_1" data-name="Layer 1" xmlns="http://www.w3.org/2000/svg" xmlns:xlink="http://www.w3.org/1999/xlink" viewBox="0 0 270.3 270.3"><defs><style>.cls-1{fill:none;}.cls-2{clip-path:url(#clip-path);}.cls-3{fill:#191919;}</style><clipPath id="clip-path"><rect class="cls-1" x="-394.5" y="-0.5" width="376" height="814"/></clipPath></defs><title>Artboard 14</title><path class="cls-3" d="M76.3,131.2V76.3a9.8,9.8,0,0,0-19.6,0v54.9a25.5,25.5,0,0,0,0,47.1v15.6a9.8,9.8,0,0,0,19.6,0V178.3a25.5,25.5,0,0,0,0-47.1Zm-9.8,33.3a9.8,9.8,0,1,1,9.8-9.8A9.8,9.8,0,0,1,66.5,164.5Z"/><path class="cls-3" d="M144.9,111.6V76.3a9.8,9.8,0,0,0-19.6,0v35.3a25.5,25.5,0,0,0,0,47.1v35.2a9.8,9.8,0,0,0,19.6,0V158.7a25.5,25.5,0,0,0,0-47.1Zm-9.8,33.3a9.8,9.8,0,1,1,9.8-9.8A9.8,9.8,0,0,1,135.1,144.9Z"/><path class="cls-3" d="M213.5,92V76.3a9.8,9.8,0,0,0-19.6,0V92a25.5,25.5,0,0,0,0,47.1v54.8a9.8,9.8,0,1,0,19.6,0V139.1a25.5,25.5,0,0,0,0-47.1Zm-9.8,33.3a9.8,9.8,0,1,1,9.8-9.8A9.8,9.8,0,0,1,203.7,125.3Z"/></svg>