<svg id="Layer_1" data-name="Layer 1" xmlns="http://www.w3.org/2000/svg" xmlns:xlink="http://www.w3.org/1999/xlink" viewBox="0 0 348 456"><defs><style>.cls-1{fill:url(#linear-gradient);}.cls-2{fill:#352719;}</style><linearGradient id="linear-gradient" x1="174" y1="37.77" x2="174" y2="418.23" gradientUnits="userSpaceOnUse"><stop offset="0.28" stop-color="#e57747"/><stop offset="1" stop-color="#d16340"/></linearGradient></defs><title>Artboard 2 copy</title><path class="cls-1" d="M318.5,182.3A144.5,144.5,0,0,0,173,37.8c-78.5.5-142.7,64.4-143.5,142.9a143.5,143.5,0,0,0,33.1,93.6l54.4,74,48.2,65.5a11,11,0,0,0,17.6,0L231,348.3l54.4-74A143.6,143.6,0,0,0,318.5,182.3Z"/><path class="cls-2" d="M237,187.4c-7.4-16.3-11.4-29.8-12-41.2a637.1,637.1,0,0,1,92.3,17.1c-.5-3.2-1-6.4-1.6-9.6a626.7,626.7,0,0,0-90.4-16.5,39.6,39.6,0,0,1,6.6-17.3c16.5-23.5,41.7-31.4,50.2-33.5-2.3-2.6-4.6-5-7.1-7.4-8.6,2-32.2,9.7-50.4,35.7a47.7,47.7,0,0,0-8.3,21.6c-9.9-.8-20.1-1.4-30.3-1.5-1.3-48.2-3.2-91.9-3.4-96.8l-5.4-.2-3.6.2c0,.8,2,46.3,3.4,96.8a360,360,0,0,0-41.4,2.9c-.8-8.4-3.3-17.4-8.9-25.1C108,87.2,85.3,77.9,77.1,75.3c-2.5,2.2-4.9,4.6-7.2,7,6.9,2.2,31.8,11.5,49.5,35.6,3.8,5.1,6.3,12.5,7.2,21.1a607.6,607.6,0,0,0-95.7,23c-.5,3.5-.8,7-1.1,10.5,6.5-2.2,49.3-16.8,97.1-24.3A83.6,83.6,0,0,1,115.7,187c-11.5,19.9-60.1,63.5-66.1,68.9,1.6,2.6,3.2,5.1,4.9,7.6,9.2-8.2,57-51.4,69-72a98,98,0,0,0,12.1-38.8c.2-1.8.3-3.8.4-5.8a339,339,0,0,1,41.2-3.1c1.1,40.6,1.6,82.9.3,106.7-1,19.3-6.7,142.4-7.8,166.8a10.9,10.9,0,0,0,9-.1c1.2-25.8,6.8-147.1,7.8-166.2,1.3-24,.8-66.4-.3-107.2,10,.1,19.9.7,29.7,1.6.5,15.7,6.6,31.9,12.9,45.7,12.4,27.2,58.3,67.1,64.6,72.5,1.7-2.5,3.4-5,4.9-7.6C289.6,248.4,247.9,211.5,237,187.4Z"/></svg>